<svg id="Layer_1" data-name="Layer 1" xmlns="http://www.w3.org/2000/svg" viewBox="0 0 33.98 33.98"><defs><style>.cls-1{fill:#fff;}</style></defs><title>44x44</title><path class="cls-1" d="M13,26a18.65,18.65,0,0,0,3.92,2.37l.15.06.15-.06A19.44,19.44,0,0,0,21.14,26c2.6-2,4-4.35,4-6.69V8.61H9V19.15C9,21.59,10.41,24,13,26Zm3.7-3.29a.85.85,0,0,0-.29-.05h0c-.39,0-.68,0-1,.05s-.62.06-1.09.07h-.55v-5h.8c.25,0,.53,0,.85-.07l.57-.06a2.42,2.42,0,0,1,.64,0l.08,0Zm7.63-3.4c0,4.39-5.39,7.37-7,8.15v-4l.08-.08a.31.31,0,0,1,.28-.15c.37,0,.64,0,1,.05s.64.06,1.13.07.85,0,.87,0h.27V21.86h.63v-.8h-.63V19.62h.63v-.8h-.63V17.2H19.6c-.23,0-.49,0-.8-.07l-.57-.06a2.8,2.8,0,0,0-.84,0h0V15.57h7Zm-7,3.43V17.7l.14,0a2.3,2.3,0,0,1,.66,0l.57.06c.32,0,.6.06.85.07h.79v5h-.55c-.47,0-.78,0-1.09-.07a9.62,9.62,0,0,0-1-.06A.86.86,0,0,0,17.37,22.76ZM9.79,9.37H24.35v5.44H9.79Zm0,6.2h6.92v1.52a2.83,2.83,0,0,0-.78,0l-.58.06c-.31,0-.58.06-.8.07H13.2v1.47h-.68v.8h.68v1.47h-.68v.79h.68v1.63h.27s.39,0,.87,0,.83,0,1.13-.07.58-.05.94-.05a.28.28,0,0,1,.27.14l0,0v4c-1.68-.83-6.92-3.77-6.92-8.3Z" transform="translate(-0.02)"/><path class="cls-1" d="M15.87,9.91H11.81v.28c0,.89,0,2.39,0,2.46a1.16,1.16,0,0,0,.62.85c.49.33,1.22.76,1.25.78l.14.08.14-.08s.82-.45,1.32-.78.59-.73.59-.85,0-1.37,0-2.46Zm-3.49.57H15.3c0,.24,0,.49,0,.74H12.38C12.38,11,12.38,10.72,12.38,10.48Zm2.92,2.15c0,.14-.19.29-.34.39-.35.24-.88.53-1.13.68-.24-.14-.73-.44-1.08-.68s-.36-.3-.37-.41,0-.38,0-.82H15.3C15.3,12.24,15.3,12.58,15.3,12.64Z" transform="translate(-0.02)"/><path class="cls-1" d="M22.78,9.79H18.63v.28c0,1.11,0,2.46,0,2.52a1.2,1.2,0,0,0,.64.86c.5.34,1.25.78,1.28.8l.14.08.14-.08s.84-.46,1.35-.8.6-.75.6-.87,0-1.4,0-2.52Zm-.57,2.79c0,.15-.19.3-.35.41-.36.24-.91.55-1.16.69-.24-.14-.75-.45-1.11-.69-.11-.07-.37-.27-.38-.43,0,0,0-.07,0-.15l1.44-1,1.57,1C22.21,12.51,22.21,12.56,22.21,12.58Zm-1.58-1.91-1.43,1c0-.41,0-.9,0-1.34h3c0,.45,0,1,0,1.37Z" transform="translate(-0.02)"/><path class="cls-1" d="M18.11,18.83l.27,0,.48,0,.84,0v-.57l-.84,0-.44,0-.28,0H18l0,.57Z" transform="translate(-0.02)"/><path class="cls-1" d="M18.88,19.91l-.41,0-.3,0H18v.57h.14l.29,0,.46,0h.84v-.57h-.84Z" transform="translate(-0.02)"/><path class="cls-1" d="M18.88,21.54l-.42,0-.29,0H18L18,22h.13l.28,0,.47,0h.24l.6,0v-.57h-.84Z" transform="translate(-0.02)"/><path class="cls-1" d="M15.27,18.9l.48,0,.27,0h.13v-.57H16l-.28,0-.43,0-.84,0v.57Z" transform="translate(-0.02)"/><path class="cls-1" d="M15.7,19.87l-.43,0-.84,0v.57l.84,0,.48,0,.27,0h.12l0-.57H16Z" transform="translate(-0.02)"/><path class="cls-1" d="M15.69,21.5l-.46,0-.81,0v.57l.84,0,.48,0L16,22h.12v-.57H16Z" transform="translate(-0.02)"/><path class="cls-1" d="M2.59,17.08a1.17,1.17,0,0,0,1.2-1.25,2.3,2.3,0,0,0,0-.54v-.07H3.15l.06.12a1.17,1.17,0,0,1,.06.46.67.67,0,0,1-.77.63.68.68,0,0,1-.7-.72.83.83,0,0,1,.14-.44L2,15.16l-.58-.09,0,.06a1.55,1.55,0,0,0-.13.53,1.21,1.21,0,0,0,1.23,1.41Z" transform="translate(-0.02)"/><path class="cls-1" d="M2.69,14.28a1.7,1.7,0,0,0,.46.07,1.1,1.1,0,0,0,1.1-.87,1.16,1.16,0,0,0-.08-.9,1.31,1.31,0,0,0-.83-.6,1.6,1.6,0,0,0-.44-.06,1.1,1.1,0,0,0-1.1.87A1.14,1.14,0,0,0,2.69,14.28Zm-.38-1.35a.52.52,0,0,1,.55-.37,1.14,1.14,0,0,1,.3,0A.87.87,0,0,1,3.7,13a.48.48,0,0,1,0,.37.51.51,0,0,1-.55.37,1.2,1.2,0,0,1-.32,0C2.54,13.57,2.2,13.32,2.31,12.93Z" transform="translate(-0.02)"/><path class="cls-1" d="M5.14,11.08l-.84-.45,0-.05c.08-.15.14-.14.27-.12l.82.1.32-.61L4.65,9.83a.71.71,0,0,0-.21,0,.61.61,0,0,0-.33-.57.76.76,0,0,0-.35-.1c-.4,0-.61.4-.8.76l-.29.54,2.18,1.16Zm-1.28-.75,0,.06-.39-.21,0-.06c.1-.18.21-.34.37-.25A.21.21,0,0,1,4,10,.53.53,0,0,1,3.86,10.32Z" transform="translate(-0.02)"/><polygon class="cls-1" points="6.49 8.93 5.37 8.01 6.96 8.37 7.4 7.83 5.5 6.26 5.11 6.73 6.23 7.66 4.65 7.29 4.2 7.83 6.1 9.4 6.49 8.93"/><polygon class="cls-1" points="9.23 6.27 8.89 5.86 8.21 6.42 7.91 6.05 8.53 5.54 8.2 5.13 7.57 5.63 7.32 5.33 8.01 4.77 7.67 4.36 6.5 5.31 8.06 7.22 9.23 6.27"/><polygon class="cls-1" points="11.28 5.05 11.01 4.58 10.25 5.01 9.3 3.33 8.76 3.64 9.96 5.78 11.28 5.05"/><polygon class="cls-1" points="13.35 4.25 13.16 3.75 12.34 4.05 11.68 2.24 11.09 2.45 11.93 4.77 13.35 4.25"/><path class="cls-1" d="M15.84,3.85H16a1.06,1.06,0,0,0,.75-.32,1,1,0,0,0,.18-.72L16.8,1.26l-.62.05.12,1.41c0,.5-.16.58-.34.59h0c-.15,0-.35-.06-.39-.53l-.11-1.41-.62.05L14.91,3A.85.85,0,0,0,15.84,3.85Z" transform="translate(-0.02)"/><polygon class="cls-1" points="18.65 2.37 19.18 3.91 19.87 4.01 20.2 1.56 19.6 1.48 19.4 2.92 18.87 1.38 18.18 1.29 17.86 3.73 18.45 3.82 18.65 2.37"/><polygon class="cls-1" points="22.05 2.09 21.45 1.9 20.71 4.26 21.31 4.44 22.05 2.09"/><polygon class="cls-1" points="25.14 3.48 24.57 3.19 23.39 4.4 23.65 2.73 23.05 2.42 22.69 5 23.3 5.31 25.14 3.48"/><polygon class="cls-1" points="25.75 7 26.08 6.58 25.38 6.03 25.68 5.66 26.31 6.16 26.64 5.74 26 5.24 26.25 4.93 26.94 5.47 27.27 5.05 26.08 4.13 24.56 6.07 25.75 7"/><path class="cls-1" d="M26.79,8l.72-.63,0,0c.09.1.09.15,0,.3l-.39.73.46.52.49-1a.69.69,0,0,0,.06-.2.62.62,0,0,0,.65-.11c.53-.47.11-1-.2-1.3l-.41-.46L26.38,7.57Zm1.45-1.27,0,0c.09.1.18.22.17.31a.18.18,0,0,1-.07.13.21.21,0,0,1-.14.06c-.11,0-.21-.11-.3-.2l0,0Z" transform="translate(-0.02)"/><path class="cls-1" d="M29.09,10c-.12.07-.27,0-.34-.17a1,1,0,0,1-.13-.47V9.24l-.56.26,0,.13a1.86,1.86,0,0,0,.21.51.91.91,0,0,0,.75.53.76.76,0,0,0,.4-.12.81.81,0,0,0,.32-1c0-.21-.05-.34,0-.39a.25.25,0,0,1,.12,0,.28.28,0,0,1,.22.15,1.12,1.12,0,0,1,.14.41l0,.11.51-.23V9.52A1.75,1.75,0,0,0,30.58,9a.78.78,0,0,0-1.12-.35.8.8,0,0,0-.32.94C29.18,9.81,29.2,9.94,29.09,10Z" transform="translate(-0.02)"/><rect class="cls-1" x="29.16" y="11.17" width="2.46" height="0.62" transform="translate(-2.1 12.34) rotate(-22.21)"/><polygon class="cls-1" points="31.65 13.05 29.77 13.51 29.92 14.12 31.8 13.65 31.95 14.29 32.47 14.16 32.01 12.29 31.49 12.42 31.65 13.05"/><polygon class="cls-1" points="30.2 16.04 30.24 16.66 31.21 16.61 32.75 17.4 32.71 16.72 31.81 16.27 32.66 15.74 32.62 15.01 31.17 15.98 30.2 16.04"/><polygon class="cls-1" points="3.06 21.68 3.57 21.53 3.35 20.79 3.73 20.68 3.96 21.46 4.47 21.31 4.07 19.93 1.7 20.61 1.87 21.21 2.84 20.93 3.06 21.68"/><path class="cls-1" d="M5.27,23.72a1.18,1.18,0,0,0-.09-.91,1.11,1.11,0,0,0-1-.69,1.49,1.49,0,0,0-.65.17A1.32,1.32,0,0,0,2.8,23a1.18,1.18,0,0,0,.09.91,1.12,1.12,0,0,0,1,.68,1.49,1.49,0,0,0,.65-.16A1.3,1.3,0,0,0,5.27,23.72Zm-1,.14a1,1,0,0,1-.45.12.52.52,0,0,1-.5-.67.87.87,0,0,1,.46-.45,1,1,0,0,1,.43-.11.52.52,0,0,1,.5.67A.84.84,0,0,1,4.29,23.87Z" transform="translate(-0.02)"/><path class="cls-1" d="M7,25.63l-1.1.88c-.3.24-.51.26-.68,0a.34.34,0,0,1-.09-.26.67.67,0,0,1,.29-.4L6.48,25l-.39-.49-1.21,1a.92.92,0,0,0-.4.67,1.09,1.09,0,0,0,.29.72,1,1,0,0,0,.77.45,1,1,0,0,0,.61-.25l1.22-1Z" transform="translate(-0.02)"/><polygon class="cls-1" points="9.05 27.64 8.13 28.76 8.48 27.17 7.93 26.73 6.37 28.63 6.84 29.02 7.76 27.89 7.42 29.49 7.96 29.93 9.52 28.02 9.05 27.64"/><path class="cls-1" d="M10.88,28.8l-.63-.32-1.11,2.2.63.32a1.83,1.83,0,0,0,.82.23,1.09,1.09,0,0,0,1-.7C12,29.81,11.72,29.22,10.88,28.8ZM11,30.24a.66.66,0,0,1-.91.33l-.15-.07.63-1.25.15.08a.66.66,0,0,1,.33.38A.71.71,0,0,1,11,30.24Z" transform="translate(-0.02)"/><polygon class="cls-1" points="12.23 32.06 13.7 32.45 13.84 31.94 12.97 31.7 13.09 31.25 13.88 31.46 14.02 30.95 13.23 30.73 13.33 30.35 14.19 30.58 14.33 30.07 12.86 29.67 12.23 32.06"/><path class="cls-1" d="M15.88,30.26l-.71,0L15,32.68l.71,0h.16a1.14,1.14,0,0,0,1.31-1.16,1.2,1.2,0,0,0-.26-.9A1.48,1.48,0,0,0,15.88,30.26Zm0,1.93h-.17l.08-1.4h.17a.7.7,0,0,1-.08,1.4Z" transform="translate(-0.02)"/><path class="cls-1" d="M19.38,30.07,19,32.68l.65-.14L19.7,32l.79-.17.3.48.68-.15L20,29.94Zm.39,1.36.08-.64.34.55Z" transform="translate(-0.02)"/><rect class="cls-1" x="21.82" y="31.22" width="0.63" height="0.63" transform="matrix(0.94, -0.34, 0.34, 0.94, -9.4, 9.37)"/><path class="cls-1" d="M22.93,28.85l-.63.34,1.18,2.17L24.1,31c.82-.44,1-1,.65-1.75S23.75,28.41,22.93,28.85Zm1,1.66-.15.08-.67-1.23.15-.08a.67.67,0,0,1,.32-.08.68.68,0,0,1,.6.38A.66.66,0,0,1,23.93,30.51Z" transform="translate(-0.02)"/><rect class="cls-1" x="25.35" y="29.39" width="0.63" height="0.63" transform="translate(-12.4 20.04) rotate(-34.93)"/><polygon class="cls-1" points="26.19 26.47 26.08 27.44 26.62 27.51 26.66 27.11 27.84 28.3 28.29 27.86 26.56 26.11 26.19 26.47"/><path class="cls-1" d="M29.55,25.18a.69.69,0,0,0-.69-.08.7.7,0,0,0-.27-.56c-.31-.23-.72-.1-1,.31a.7.7,0,0,0,.07,1.06.64.64,0,0,0,.61.08.66.66,0,0,0,.26.61.71.71,0,0,0,.43.15.91.91,0,0,0,.7-.43.94.94,0,0,0,.21-.68A.71.71,0,0,0,29.55,25.18Zm-1.17.18a.54.54,0,0,1-.26.1.17.17,0,0,1-.1,0c-.12-.09-.06-.24,0-.31a.18.18,0,0,1,.15-.09.23.23,0,0,1,.13,0A.31.31,0,0,1,28.37,25.36Zm.85.66a.25.25,0,0,1-.35.07.31.31,0,0,1-.1-.34c.18-.12.31-.13.42-.05a.21.21,0,0,1,.09.14A.25.25,0,0,1,29.22,26Z" transform="translate(-0.02)"/><path class="cls-1" d="M30.66,22.77a.72.72,0,0,0-1,.32.61.61,0,0,0-.07.34.45.45,0,0,1-.17-.56.91.91,0,0,1,.24-.29l.08-.07-.45-.33-.05.05a1.51,1.51,0,0,0-.3.42.9.9,0,0,0-.07.71,2,2,0,0,0,1.57,1,.75.75,0,0,0,.7-.46A.8.8,0,0,0,30.66,22.77Zm0,.93a.19.19,0,0,1-.19.12.45.45,0,0,1-.2-.06.42.42,0,0,1-.23-.21.18.18,0,0,1,0-.14.19.19,0,0,1,.19-.11.53.53,0,0,1,.22.06.39.39,0,0,1,.21.2A.17.17,0,0,1,30.64,23.7Z" transform="translate(-0.02)"/><path class="cls-1" d="M31.54,20.28a.77.77,0,0,0-1,.55.82.82,0,0,0,0,.12l-.29-.09.25-.85-.49-.15-.42,1.42,1.37.43V21.6a1.3,1.3,0,0,1,.05-.39c0-.12.16-.41.43-.33s.21.39.19.48a1.09,1.09,0,0,1-.23.39l-.08.1.58.19,0-.06a2.53,2.53,0,0,0,.22-.51,1,1,0,0,0,0-.77A.83.83,0,0,0,31.54,20.28Z" transform="translate(-0.02)"/><path class="cls-1" d="M4.59,17A12.42,12.42,0,1,0,17,4.57,12.44,12.44,0,0,0,4.59,17ZM17,5A12,12,0,1,1,5,17,12,12,0,0,1,17,5Z" transform="translate(-0.02)"/><path class="cls-1" d="M17,0A17,17,0,1,0,34,17,17,17,0,0,0,17,0Zm0,33.54A16.55,16.55,0,1,1,33.56,17,16.57,16.57,0,0,1,17,33.54Z" transform="translate(-0.02)"/></svg>